<svg version="1" xmlns="http://www.w3.org/2000/svg" width="682.667" height="682.667" viewBox="0 0 512.000000 512.000000"><path d="M255 2.8c0 .7-138.6 140-144.7 145.4-1.9 1.7-2.5 1.2-23.1-19.2-11.7-11.6-21.7-21-22.2-21-1.2 0-1.4 295.2-.3 296.4.4.4 10.4-9 22.3-20.9l21.5-21.5 73.8 73.8 73.7 73.7 73.7-73.7 73.8-73.8 21 21c11.6 11.5 21.6 21 22.3 21 .9 0 1.2-30.8 1.2-148 0-83.4-.4-148-.9-148s-10.4 9.5-22.1 21.2l-21.2 21.1-74.1-74.1C288.9 35.4 255.4 2 255.3 2c-.2 0-.3.4-.3.8zm22.2 232.9l20.7 20.8-20.7 20.8-20.8 20.8-21-21.1-20.9-21 20.5-20.5c11.3-11.3 20.7-20.5 21-20.5.3 0 9.8 9.3 21.2 20.7z"/></svg>